[{"note":60,"velocity":61,"starting_time_offset":0.002111,"duration":0.507989},{"note":64,"velocity":48,"starting_time_offset":0.002079,"duration":0.556798},{"note":55,"velocity":72,"starting_time_offset":0.416528,"duration":0.491131},{"note":60,"velocity":67,"starting_time_offset":0.76967,"duration":1.027884},{"note":64,"velocity":57,"starting_time_offset":0.756715,"duration":1.056886},{"note":48,"velocity":71,"starting_time_offset":4.0e-06,"duration":2.147005},{"note":55,"velocity":59,"starting_time_offset":1.750123,"duration":0.517447},{"note":64,"velocity":79,"starting_time_offset":2.094442,"duration":0.544255},{"note":60,"velocity":81,"starting_time_offset":2.107257,"duration":0.535881},{"note":55,"velocity":80,"starting_time_offset":2.441209,"duration":0.367926},{"note":60,"velocity":60,"starting_time_offset":2.787001,"duration":0.404967},{"note":64,"velocity":79,"starting_time_offset":2.771122,"duration":0.426853},{"note":57,"velocity":49,"starting_time_offset":3.125872,"duration":1.08511},{"note":60,"velocity":43,"starting_time_offset":3.465812,"duration":0.964835},{"note":64,"velocity":41,"starting_time_offset":3.470491,"duration":0.964779},{"note":57,"velocity":66,"starting_time_offset":4.354988,"duration":0.431315},{"note":57,"velocity":58,"starting_time_offset":5.02375,"duration":0.207706},{"note":53,"velocity":63,"starting_time_offset":2.781171,"duration":2.468771},{"note":60,"velocity":72,"starting_time_offset":4.680168,"duration":0.569802},{"note":64,"velocity":61,"starting_time_offset":4.670557,"duration":0.594186}]