[{"note":60,"velocity":80,"starting_time_offset":0.677646,"duration":0.248938},{"note":67,"velocity":65,"starting_time_offset":0.920729,"duration":0.27753},{"note":64,"velocity":72,"starting_time_offset":1.158224,"duration":0.27194},{"note":67,"velocity":71,"starting_time_offset":1.393416,"duration":0.223829},{"note":72,"velocity":67,"starting_time_offset":0.67571,"duration":1.003001},{"note":60,"velocity":60,"starting_time_offset":1.635017,"duration":0.230659},{"note":67,"velocity":66,"starting_time_offset":1.873849,"duration":0.234707},{"note":76,"velocity":74,"starting_time_offset":1.634984,"duration":0.477412},{"note":64,"velocity":80,"starting_time_offset":2.092645,"duration":0.260177},{"note":67,"velocity":70,"starting_time_offset":2.305023,"duration":0.268234},{"note":79,"velocity":73,"starting_time_offset":2.110577,"duration":0.471452},{"note":62,"velocity":73,"starting_time_offset":2.56061,"duration":0.252699},{"note":67,"velocity":82,"starting_time_offset":2.791857,"duration":0.453465},{"note":65,"velocity":83,"starting_time_offset":3.048561,"duration":0.259249},{"note":71,"velocity":81,"starting_time_offset":2.575004,"duration":0.793797},{"note":72,"velocity":70,"starting_time_offset":3.33566,"duration":0.099651},{"note":74,"velocity":43,"starting_time_offset":3.393388,"duration":0.139932},{"note":67,"velocity":82,"starting_time_offset":3.260732,"duration":0.278803},{"note":60,"velocity":62,"starting_time_offset":3.586374,"duration":0.200379},{"note":67,"velocity":71,"starting_time_offset":3.784777,"duration":0.235626},{"note":64,"velocity":76,"starting_time_offset":3.998838,"duration":0.285671},{"note":67,"velocity":79,"starting_time_offset":4.25057,"duration":0.196535},{"note":72,"velocity":80,"starting_time_offset":3.528659,"duration":0.958461}]